<?xml version="1.0" encoding="UTF-8" standalone="no"?><!DOCTYPE svg PUBLIC "-//W3C//DTD SVG 1.1//EN" "http://www.w3.org/Graphics/SVG/1.1/DTD/svg11.dtd"><svg width="100%" height="100%" viewBox="0 0 24 24" version="1.1" xmlns="http://www.w3.org/2000/svg" xmlns:xlink="http://www.w3.org/1999/xlink" xml:space="preserve" xmlns:serif="http://www.serif.com/" style="fill-rule:evenodd;clip-rule:evenodd;stroke-linejoin:round;stroke-miterlimit:1.41421;"><path id="ic_power_settings_new_24px" d="M14.585,16.566l0,2.693c0,0.23 -0.038,0.432 -0.116,0.605c-0.078,0.174 -0.184,0.318 -0.319,0.434c-0.135,0.117 -0.293,0.204 -0.473,0.262c-0.181,0.058 -0.375,0.087 -0.581,0.087c-0.213,0 -0.411,-0.029 -0.592,-0.087c-0.182,-0.058 -0.339,-0.145 -0.473,-0.262c-0.133,-0.116 -0.237,-0.26 -0.312,-0.434c-0.074,-0.173 -0.112,-0.375 -0.112,-0.605l0,-2.693l0.69,0l0,2.693c0,0.144 0.019,0.268 0.056,0.372c0.037,0.104 0.091,0.19 0.16,0.258c0.07,0.068 0.153,0.119 0.252,0.151c0.099,0.032 0.209,0.048 0.331,0.048c0.123,0 0.233,-0.016 0.333,-0.048c0.099,-0.032 0.183,-0.083 0.252,-0.151c0.068,-0.068 0.121,-0.154 0.158,-0.258c0.038,-0.104 0.057,-0.228 0.057,-0.372l0,-2.693l0.689,0Zm-11.892,4.026l-0.693,0l0,-4.026l0.693,0l0,1.888l0.383,-0.478l1.166,-1.41l0.837,0l-1.48,1.783l1.565,2.243l-0.821,0l-1.199,-1.74l-0.451,0.484l0,1.256Zm6.703,-0.559l1.809,0l0,0.559l-2.501,0l0,-4.026l0.692,0l0,3.467Zm-1.275,-2.903l-1.895,0l0,1.111l1.637,0l0,0.553l-1.637,0l0,1.239l1.914,0l0,0.559l-2.606,0l0,-4.026l2.587,0l0,0.564Zm11.566,3.462l-0.693,0l0,-4.026l1.402,0c0.228,0 0.432,0.026 0.61,0.079c0.179,0.052 0.33,0.13 0.453,0.232c0.124,0.102 0.217,0.229 0.281,0.38c0.064,0.151 0.096,0.326 0.096,0.525c0,0.269 -0.065,0.495 -0.193,0.676c-0.129,0.182 -0.308,0.322 -0.538,0.419l0.895,1.679l0,0.036l-0.742,0l-0.799,-1.552l-0.772,0l0,1.552Zm-1.144,0l-0.723,0l-0.326,-0.938l-1.543,0l-0.323,0.938l-0.72,0l1.505,-4.026l0.622,0l1.508,4.026Zm-2.398,-1.502l1.155,0l-0.577,-1.67l-0.578,1.67Zm4.251,-1.96l-0.709,0l0,1.349l0.712,0c0.124,0 0.232,-0.016 0.325,-0.05c0.093,-0.033 0.171,-0.079 0.233,-0.138c0.062,-0.059 0.109,-0.129 0.14,-0.21c0.031,-0.081 0.046,-0.171 0.046,-0.268c0,-0.103 -0.014,-0.197 -0.044,-0.281c-0.029,-0.084 -0.073,-0.156 -0.134,-0.216c-0.06,-0.059 -0.137,-0.105 -0.231,-0.138c-0.094,-0.032 -0.207,-0.048 -0.338,-0.048Zm-4.728,-12.412l-0.893,0.894c1.031,0.827 1.632,2.081 1.629,3.404c0,2.435 -1.969,4.404 -4.404,4.404c-0.001,0 -0.002,0 -0.003,0c-2.414,0 -4.401,-1.987 -4.401,-4.401c0,-1.323 0.597,-2.578 1.623,-3.413l-0.887,-0.888c-1.265,1.068 -1.996,2.642 -1.995,4.298c0,3.106 2.557,5.662 5.663,5.662c3.106,0 5.663,-2.556 5.663,-5.662c0,-1.724 -0.774,-3.259 -1.995,-4.298Zm-3.039,-1.365l0,6.292l-1.258,0l0,-6.292l1.258,0Z" style="fill-rule:nonzero;"/></svg>