<?xml version="1.0" encoding="UTF-8" standalone="no"?><!DOCTYPE svg PUBLIC "-//W3C//DTD SVG 1.1//EN" "http://www.w3.org/Graphics/SVG/1.1/DTD/svg11.dtd"><svg width="100%" height="100%" viewBox="0 0 48 48" version="1.1" xmlns="http://www.w3.org/2000/svg" xmlns:xlink="http://www.w3.org/1999/xlink" xml:space="preserve" xmlns:serif="http://www.serif.com/" style="fill-rule:evenodd;clip-rule:evenodd;stroke-linejoin:round;stroke-miterlimit:1.41421;"><g id="Mn_test"><path d="M45.267,13c-0.406,0 -0.734,0.329 -0.734,0.733l0,28.6c0,1.213 -0.987,2.2 -2.2,2.2l-17.6,0l0,-1.687c1.07,-0.374 3.855,-1.246 6.6,-1.246c6.388,0 10.726,1.415 10.769,1.429c0.221,0.074 0.467,0.037 0.66,-0.101c0.192,-0.138 0.305,-0.359 0.305,-0.595l0,-32.266c0,-0.344 -0.239,-0.642 -0.575,-0.716c0,0 -0.575,-0.128 -1.557,-0.309c-0.397,-0.073 -0.78,0.191 -0.854,0.588c-0.073,0.399 0.19,0.781 0.588,0.855c0.375,0.069 0.689,0.13 0.931,0.178l0,30.696c-1.662,-0.436 -5.352,-1.226 -10.267,-1.226c-3.195,0 -6.334,1.05 -7.305,1.405c-0.863,-0.381 -3.472,-1.405 -6.628,-1.405c-5.051,0 -9.212,0.833 -11,1.257l0,-30.756c1.464,-0.36 5.79,-1.301 11,-1.301c2.674,0 4.967,0.833 5.867,1.209l0,28.858c0,0.264 0.142,0.508 0.371,0.638c0.23,0.131 0.513,0.127 0.74,-0.009c0.072,-0.044 7.338,-4.384 13.787,-6.533c0.3,-0.1 0.502,-0.38 0.502,-0.696l0,-30.067c0,-0.24 -0.119,-0.465 -0.317,-0.602c-0.196,-0.137 -0.448,-0.169 -0.675,-0.085c-5.867,2.201 -11.804,5.896 -11.864,5.932c-0.343,0.215 -0.448,0.668 -0.233,1.011c0.214,0.343 0.667,0.448 1.011,0.233c0.054,-0.034 5.219,-3.248 10.611,-5.416l0,28.469c-5.006,1.74 -10.232,4.58 -12.467,5.851l0,-28.059c0,-0.278 -0.157,-0.532 -0.405,-0.656c-0.127,-0.063 -3.132,-1.544 -6.928,-1.544c-6.626,0 -11.721,1.434 -11.935,1.495c-0.315,0.09 -0.532,0.378 -0.532,0.705l0,32.266c0,0.23 0.109,0.447 0.291,0.586c0.129,0.097 0.285,0.148 0.443,0.148c0.067,0 0.135,-0.01 0.201,-0.029c0.05,-0.014 5.121,-1.438 11.532,-1.438c2.681,0 4.972,0.835 5.867,1.209l0,1.724l-17.6,0c-1.213,0 -2.2,-0.987 -2.2,-2.2l0,-28.599c0,-0.405 -0.329,-0.734 -0.734,-0.734c-0.404,0 -0.733,0.329 -0.733,0.734l0,28.599c0,2.022 1.645,3.667 3.667,3.667l36.666,0c2.022,0 3.667,-1.645 3.667,-3.667l0,-28.599c0,-0.405 -0.328,-0.734 -0.733,-0.734Z" style="fill:#41986b;fill-rule:nonzero;"/><path d="M27.012,22.866c0.13,0.254 0.388,0.401 0.655,0.401c0.112,0 0.226,-0.026 0.333,-0.08c0.043,-0.022 4.359,-2.215 6.488,-2.887c0.386,-0.123 0.6,-0.535 0.477,-0.921c-0.121,-0.385 -0.53,-0.6 -0.92,-0.478c-2.242,0.709 -6.529,2.887 -6.711,2.979c-0.361,0.183 -0.505,0.625 -0.322,0.986Z" style="fill:#ffa500;fill-rule:nonzero;"/><path d="M27.667,14.467c0.112,0 0.226,-0.026 0.333,-0.08c0.043,-0.022 4.359,-2.215 6.488,-2.887c0.386,-0.123 0.6,-0.535 0.477,-0.921c-0.121,-0.385 -0.53,-0.6 -0.92,-0.478c-2.242,0.709 -6.529,2.887 -6.711,2.979c-0.361,0.183 -0.505,0.625 -0.322,0.986c0.13,0.254 0.388,0.401 0.655,0.401Z" style="fill:#ffa500;fill-rule:nonzero;"/><path d="M27.012,18.466c0.13,0.254 0.388,0.401 0.655,0.401c0.112,0 0.226,-0.026 0.333,-0.08c0.043,-0.022 4.359,-2.215 6.488,-2.887c0.386,-0.123 0.6,-0.535 0.477,-0.921c-0.121,-0.385 -0.53,-0.6 -0.92,-0.478c-2.242,0.709 -6.529,2.887 -6.711,2.979c-0.361,0.183 -0.505,0.625 -0.322,0.986Z" style="fill:#ffa500;fill-rule:nonzero;"/><path d="M27.012,27.266c0.13,0.254 0.388,0.401 0.655,0.401c0.112,0 0.226,-0.026 0.333,-0.08c0.043,-0.022 4.359,-2.215 6.488,-2.887c0.386,-0.123 0.6,-0.535 0.477,-0.921c-0.121,-0.385 -0.53,-0.6 -0.92,-0.478c-2.242,0.709 -6.529,2.887 -6.711,2.979c-0.361,0.183 -0.505,0.625 -0.322,0.986Z" style="fill:#ffa500;fill-rule:nonzero;"/><path d="M19.767,15.609c-4.528,-1.062 -9.674,0.292 -9.89,0.349c-0.391,0.105 -0.624,0.507 -0.519,0.899c0.088,0.328 0.385,0.543 0.708,0.543c0.063,0 0.127,-0.008 0.191,-0.025c0.049,-0.014 5.003,-1.317 9.176,-0.338c0.392,0.092 0.789,-0.152 0.881,-0.547c0.093,-0.394 -0.152,-0.788 -0.547,-0.881Z" style="fill:#ffa500;fill-rule:nonzero;"/><path d="M19.767,20.009c-4.528,-1.061 -9.674,0.292 -9.89,0.349c-0.391,0.105 -0.624,0.507 -0.519,0.899c0.088,0.328 0.385,0.543 0.708,0.543c0.063,0 0.127,-0.008 0.191,-0.025c0.049,-0.014 5.003,-1.317 9.176,-0.338c0.392,0.092 0.789,-0.152 0.881,-0.547c0.093,-0.394 -0.152,-0.788 -0.547,-0.881Z" style="fill:#ffa500;fill-rule:nonzero;"/><path d="M27.012,31.666c0.13,0.254 0.388,0.401 0.655,0.401c0.112,0 0.226,-0.026 0.333,-0.08c0.043,-0.022 4.359,-2.215 6.488,-2.887c0.386,-0.123 0.6,-0.535 0.477,-0.921c-0.121,-0.385 -0.53,-0.6 -0.92,-0.478c-2.242,0.709 -6.529,2.887 -6.711,2.979c-0.361,0.183 -0.505,0.625 -0.322,0.986Z" style="fill:#ffa500;fill-rule:nonzero;"/><path d="M19.767,24.409c-4.528,-1.061 -9.674,0.291 -9.89,0.349c-0.391,0.105 -0.624,0.507 -0.519,0.899c0.088,0.328 0.385,0.544 0.708,0.544c0.063,0 0.127,-0.009 0.191,-0.026c0.049,-0.014 5.003,-1.317 9.176,-0.338c0.392,0.092 0.789,-0.152 0.881,-0.547c0.093,-0.394 -0.152,-0.788 -0.547,-0.881Z" style="fill:#ffa500;fill-rule:nonzero;"/><path d="M19.767,33.209c-4.528,-1.062 -9.674,0.292 -9.89,0.349c-0.391,0.105 -0.624,0.507 -0.519,0.899c0.088,0.327 0.385,0.544 0.708,0.544c0.063,0 0.127,-0.009 0.191,-0.026c0.049,-0.014 5.003,-1.317 9.176,-0.338c0.392,0.091 0.789,-0.152 0.881,-0.547c0.093,-0.394 -0.152,-0.788 -0.547,-0.881Z" style="fill:#ffa500;fill-rule:nonzero;"/><path d="M19.767,28.809c-4.528,-1.062 -9.674,0.291 -9.89,0.349c-0.391,0.105 -0.624,0.507 -0.519,0.899c0.088,0.328 0.385,0.544 0.708,0.544c0.063,0 0.127,-0.009 0.191,-0.026c0.049,-0.014 5.003,-1.317 9.176,-0.338c0.392,0.092 0.789,-0.152 0.881,-0.547c0.093,-0.394 -0.152,-0.788 -0.547,-0.881Z" style="fill:#ffa500;fill-rule:nonzero;"/></g></svg>