<?xml version="1.0" encoding="UTF-8" standalone="no"?><!DOCTYPE svg PUBLIC "-//W3C//DTD SVG 1.1//EN" "http://www.w3.org/Graphics/SVG/1.1/DTD/svg11.dtd"><svg width="100%" height="100%" viewBox="0 0 48 48" version="1.1" xmlns="http://www.w3.org/2000/svg" xmlns:xlink="http://www.w3.org/1999/xlink" xml:space="preserve" xmlns:serif="http://www.serif.com/" style="fill-rule:evenodd;clip-rule:evenodd;stroke-linejoin:round;stroke-miterlimit:1.41421;"><g id="Mn_lock"><path d="M9,45c-0.552,0 -1,-0.45 -1,-1l0,-7l32,0l0,7c0,0.55 -0.448,1 -1,1l-30,0Z" style="fill:#ffa500;fill-rule:nonzero;"/><path d="M9,36l0,-16c0,-1.102 0.898,-2 2,-2l26,0c1.102,0 2,0.898 2,2l0,16l-30,0Zm30,8l-30,0l0,-6l30,0l0,6Zm-24.086,-31c0,-5.01 4.076,-9.084 9.086,-9.084c5.01,0 9.086,4.074 9.086,9.084l0,3l-18.172,0l0,-3Zm22.086,3l-2,0l0,-3c0,-6.074 -4.924,-11 -11,-11c-6.076,0 -11,4.926 -11,11l0,3l-2,0c-2.21,0 -4,1.792 -4,4l0,24c0,1.104 0.896,2 2,2l30,0c1.104,0 2,-0.896 2,-2l0,-24c0,-2.208 -1.79,-4 -4,-4" style="fill:#41986b;fill-rule:nonzero;"/><path d="M24,24c-0.552,0 -1,0.448 -1,1l0,4c0,0.552 0.448,1 1,1c0.552,0 1,-0.448 1,-1l0,-4c0,-0.552 -0.448,-1 -1,-1" style="fill:#41986b;fill-rule:nonzero;"/></g></svg>