<?xml version="1.0" encoding="UTF-8" standalone="no"?><!DOCTYPE svg PUBLIC "-//W3C//DTD SVG 1.1//EN" "http://www.w3.org/Graphics/SVG/1.1/DTD/svg11.dtd"><svg width="100%" height="100%" viewBox="0 0 48 48" version="1.1" xmlns="http://www.w3.org/2000/svg" xmlns:xlink="http://www.w3.org/1999/xlink" xml:space="preserve" xmlns:serif="http://www.serif.com/" style="fill-rule:evenodd;clip-rule:evenodd;stroke-linejoin:round;stroke-miterlimit:1.41421;"><g id="Mn_mail"><path d="M24,23.711c-0.163,0 -0.323,-0.042 -0.462,-0.125l-20.621,-12.028l0,-3.141c0,-0.506 0.412,-0.916 0.916,-0.916l40.334,0c0.504,0 0.916,0.41 0.916,0.916l0,3.141l-20.621,12.028c-0.139,0.083 -0.299,0.125 -0.462,0.125" style="fill:#ffa500;fill-rule:nonzero;"/><path d="M44.167,39.583l-40.334,0l0,-26.431l19.243,11.226c0.286,0.166 0.605,0.249 0.924,0.249c0.319,0 0.638,-0.083 0.924,-0.249l19.243,-11.226l0,26.431Zm-40.334,-31.166l40.334,0l0,2.614l-20.167,11.763l-20.167,-11.763l0,-2.614Zm40.334,-1.834l-40.334,0c-1.012,0 -1.833,0.822 -1.833,1.834l0,31.166c0,1.012 0.821,1.834 1.833,1.834l40.334,0c1.012,0 1.833,-0.822 1.833,-1.834l0,-31.166c0,-1.012 -0.821,-1.834 -1.833,-1.834" style="fill:#41986b;fill-rule:nonzero;"/></g></svg>