<?xml version="1.0" encoding="UTF-8" standalone="no"?><!DOCTYPE svg PUBLIC "-//W3C//DTD SVG 1.1//EN" "http://www.w3.org/Graphics/SVG/1.1/DTD/svg11.dtd"><svg width="100%" height="100%" viewBox="0 0 24 24" version="1.1" xmlns="http://www.w3.org/2000/svg" xmlns:xlink="http://www.w3.org/1999/xlink" xml:space="preserve" xmlns:serif="http://www.serif.com/" style="fill-rule:evenodd;clip-rule:evenodd;stroke-linejoin:round;stroke-miterlimit:1.41421;"><path fill="#ffffff" d="M4.967,17.751l-0.688,0c0,-0.097 -0.015,-0.187 -0.045,-0.268c-0.03,-0.082 -0.076,-0.153 -0.138,-0.213c-0.062,-0.059 -0.14,-0.106 -0.235,-0.139c-0.094,-0.033 -0.206,-0.049 -0.335,-0.049c-0.122,0 -0.228,0.013 -0.317,0.041c-0.089,0.028 -0.163,0.066 -0.222,0.116c-0.06,0.049 -0.103,0.108 -0.131,0.176c-0.029,0.068 -0.043,0.142 -0.043,0.221c0,0.149 0.07,0.273 0.209,0.372c0.139,0.099 0.352,0.191 0.637,0.276c0.224,0.066 0.418,0.139 0.582,0.22c0.163,0.081 0.299,0.172 0.408,0.274c0.108,0.102 0.188,0.217 0.241,0.345c0.053,0.128 0.079,0.272 0.079,0.431c0,0.169 -0.033,0.322 -0.099,0.457c-0.067,0.135 -0.161,0.25 -0.284,0.344c-0.123,0.095 -0.272,0.167 -0.446,0.218c-0.175,0.051 -0.37,0.076 -0.584,0.076c-0.191,0 -0.38,-0.026 -0.565,-0.079c-0.186,-0.052 -0.352,-0.131 -0.5,-0.237c-0.147,-0.105 -0.266,-0.237 -0.356,-0.395c-0.09,-0.158 -0.135,-0.344 -0.135,-0.557l0.69,0c0,0.127 0.023,0.235 0.067,0.326c0.045,0.091 0.106,0.166 0.183,0.224c0.078,0.058 0.169,0.1 0.274,0.127c0.106,0.026 0.22,0.039 0.342,0.039c0.24,0 0.42,-0.049 0.541,-0.147c0.121,-0.098 0.182,-0.228 0.182,-0.39c0,-0.081 -0.012,-0.153 -0.036,-0.216c-0.023,-0.064 -0.066,-0.122 -0.129,-0.176c-0.063,-0.053 -0.149,-0.104 -0.26,-0.153c-0.11,-0.048 -0.251,-0.099 -0.424,-0.153c-0.189,-0.057 -0.364,-0.122 -0.524,-0.195c-0.16,-0.074 -0.298,-0.159 -0.413,-0.257c-0.116,-0.097 -0.206,-0.209 -0.272,-0.336c-0.065,-0.127 -0.098,-0.272 -0.098,-0.436c0,-0.161 0.034,-0.31 0.102,-0.446c0.068,-0.136 0.164,-0.254 0.288,-0.353c0.124,-0.099 0.272,-0.176 0.445,-0.232c0.173,-0.055 0.364,-0.082 0.573,-0.082c0.224,0 0.425,0.032 0.603,0.098c0.179,0.065 0.329,0.154 0.452,0.266c0.123,0.112 0.217,0.242 0.282,0.39c0.066,0.148 0.099,0.305 0.099,0.472Zm1.337,2.843l-0.688,0l0,-4.014l0.688,0l0,4.014Zm6.433,0l-0.691,0l0,-4.014l1.52,0c0.231,0 0.436,0.032 0.616,0.095c0.179,0.063 0.33,0.152 0.454,0.266c0.124,0.114 0.218,0.249 0.283,0.405c0.064,0.156 0.096,0.326 0.096,0.51c0,0.195 -0.032,0.37 -0.096,0.524c-0.065,0.154 -0.159,0.285 -0.283,0.391c-0.124,0.107 -0.275,0.189 -0.454,0.246c-0.179,0.057 -0.385,0.085 -0.616,0.085l-0.829,0l0,1.492Zm6.801,0l-0.69,0l0,-4.014l0.69,0l1.777,2.859l0,-2.859l0.685,0l0,4.014l-0.69,0l-1.772,-2.848l0,2.848Zm-11.698,0l-0.687,0l0,-4.014l0.895,0l1.146,3.076l1.144,-3.076l0.892,0l0,4.014l-0.688,0l0,-1.324l0.069,-1.769l-1.174,3.093l-0.494,0l-1.171,-3.091l0.068,1.767l0,1.324Zm10.557,0l-0.72,0l-0.325,-0.935l-1.539,0l-0.322,0.935l-0.718,0l1.501,-4.014l0.62,0l1.503,4.014Zm-2.39,-1.497l1.151,0l-0.575,-1.665l-0.576,1.665Zm-2.441,-1.955l-0.829,0l0,1.401l0.829,0c0.133,0 0.247,-0.017 0.343,-0.05c0.095,-0.033 0.174,-0.08 0.236,-0.141c0.062,-0.06 0.107,-0.132 0.135,-0.216c0.028,-0.084 0.042,-0.175 0.042,-0.274c0,-0.094 -0.014,-0.184 -0.042,-0.27c-0.028,-0.087 -0.073,-0.163 -0.135,-0.231c-0.062,-0.067 -0.141,-0.12 -0.236,-0.159c-0.096,-0.04 -0.21,-0.06 -0.343,-0.06Zm2.825,-2.499l-8.782,0c-0.688,0 -1.255,-0.567 -1.255,-1.255l0,-8.782c0,-0.688 0.567,-1.255 1.255,-1.255l7.528,0l2.509,2.509l0,7.528c0,0.69 -0.565,1.255 -1.255,1.255Zm-0.276,-4.417l-8.469,0l0,2.535l8.469,0l0,-2.535Zm-2.233,-5.62l-6.273,0l0,3.45l6.273,0l0,-3.45Zm-3.413,0.627l0,1.882l-1.882,0l0,-1.882l1.882,0Z" style="fill-rule:nonzero;"/></svg>