<?xml version="1.0" encoding="UTF-8" standalone="no"?><!DOCTYPE svg PUBLIC "-//W3C//DTD SVG 1.1//EN" "http://www.w3.org/Graphics/SVG/1.1/DTD/svg11.dtd"><svg width="100%" height="100%" viewBox="0 0 48 48" version="1.1" xmlns="http://www.w3.org/2000/svg" xmlns:xlink="http://www.w3.org/1999/xlink" xml:space="preserve" xmlns:serif="http://www.serif.com/" style="fill-rule:evenodd;clip-rule:evenodd;stroke-linejoin:round;stroke-miterlimit:1.41421;"><g id="Mn_user"><path d="M24,44.167c-11.119,0 -20.167,-9.048 -20.167,-20.167c0,-11.119 9.048,-20.167 20.167,-20.167c11.119,0 20.167,9.048 20.167,20.167c0,11.119 -9.048,20.167 -20.167,20.167m0,-42.167c-12.15,0 -22,9.851 -22,22c0,12.149 9.85,22 22,22c12.149,0 22,-9.851 22,-22c0,-12.149 -9.851,-22 -22,-22" style="fill:#41986b;fill-rule:nonzero;"/><path d="M24,37.933c-5.962,0 -11,-2.938 -11,-6.416c0,-3.478 5.038,-6.417 11,-6.417c5.962,0 11,2.939 11,6.417c0,3.478 -5.038,6.416 -11,6.416m-5.5,-21.633c0,-3.841 2.468,-6.967 5.5,-6.967c3.032,0 5.5,3.126 5.5,6.967c0,3.841 -2.468,6.967 -5.5,6.967c-3.032,0 -5.5,-3.126 -5.5,-6.967m9.478,7.376c2.015,-1.568 3.355,-4.279 3.355,-7.376c0,-4.86 -3.283,-8.8 -7.333,-8.8c-4.05,0 -7.333,3.94 -7.333,8.8c0,3.097 1.34,5.808 3.355,7.376c-5.139,1.078 -8.855,4.178 -8.855,7.841c0,4.556 5.745,8.25 12.833,8.25c7.088,0 12.833,-3.694 12.833,-8.25c0,-3.663 -3.716,-6.763 -8.855,-7.841" style="fill:#ffa500;fill-rule:nonzero;"/></g></svg>