<?xml version="1.0" encoding="UTF-8" standalone="no"?><!DOCTYPE svg PUBLIC "-//W3C//DTD SVG 1.1//EN" "http://www.w3.org/Graphics/SVG/1.1/DTD/svg11.dtd"><svg width="100%" height="100%" viewBox="0 0 48 48" version="1.1" xmlns="http://www.w3.org/2000/svg" xmlns:xlink="http://www.w3.org/1999/xlink" xml:space="preserve" xmlns:serif="http://www.serif.com/" style="fill-rule:evenodd;clip-rule:evenodd;stroke-linejoin:round;stroke-miterlimit:1.41421;"><g id="Mn_claim"><path d="M32.698,38.884c0,1.104 -0.896,2 -2,2c-5.407,0 -20.268,0 -25.675,0c-1.104,0 -2,-0.896 -2,-2c0,-6.684 0,-28.2 0,-34.884c0,-1.105 0.896,-2 2,-2c5.407,0 20.268,0 25.675,0c1.104,0 2,0.895 2,2c0,6.684 0,28.2 0,34.884Zm-27.628,-34.837l0,34.79l25.581,0l0,-34.79l-25.581,0Z" style="fill:#41986b;fill-rule:nonzero;"/><path d="M39.86,46l-4.093,-4c0,0 -0.956,0 -1.945,0c-1.375,0 -2.694,-0.546 -3.666,-1.519c-1.719,-1.718 -4.5,-4.499 -6.205,-6.204c-0.82,-0.821 -0.821,-2.152 0,-2.973c0.001,0 0.001,-0.001 0.002,-0.001c0.329,-0.329 0.837,-0.399 1.243,-0.171c3.961,2.239 7.027,3.844 7.502,3.612l0,-8.093c0,0 1.02,0 1.884,0c0.753,0 1.456,0.377 1.872,1.004c1.984,3.026 3.413,6.107 4.43,9.229l4.093,3.069l-5.117,6.047Zm-11.255,-20.465c0,-0.565 -0.458,-1.023 -1.024,-1.023c-3.623,0 -15.818,0 -19.441,0c-0.566,0 -1.024,0.458 -1.024,1.023c0,0.565 0.458,1.023 1.024,1.023c3.623,0 15.818,0 19.441,0c0.566,0 1.024,-0.458 1.024,-1.023c0,0 0,0 0,0Zm0,-5.799c0,-0.565 -0.458,-1.023 -1.024,-1.023c-3.623,0 -15.818,0 -19.441,0c-0.566,0 -1.024,0.458 -1.024,1.023c0,0.566 0.458,1.024 1.024,1.024c3.623,0 15.818,0 19.441,0c0.566,0 1.024,-0.458 1.024,-1.024c0,0 0,0 0,0Zm0,-5.798c0,-0.565 -0.458,-1.023 -1.024,-1.023c-3.623,0 -15.818,0 -19.441,0c-0.566,0 -1.024,0.458 -1.024,1.023c0,0.565 0.458,1.023 1.024,1.023c3.623,0 15.818,0 19.441,0c0.566,0 1.024,-0.458 1.024,-1.023c0,0 0,0 0,0Zm0,-5.798c0,-0.566 -0.458,-1.024 -1.024,-1.024c-3.623,0 -15.818,0 -19.441,0c-0.566,0 -1.024,0.458 -1.024,1.024c0,0.565 0.458,1.023 1.024,1.023c3.623,0 15.818,0 19.441,0c0.566,0 1.024,-0.458 1.024,-1.023c0,0 0,0 0,0Z" style="fill:#ffa500;"/></g></svg>