<?xml version="1.0" encoding="UTF-8" standalone="no"?><!DOCTYPE svg PUBLIC "-//W3C//DTD SVG 1.1//EN" "http://www.w3.org/Graphics/SVG/1.1/DTD/svg11.dtd"><svg width="100%" height="100%" viewBox="0 0 48 48" version="1.1" xmlns="http://www.w3.org/2000/svg" xmlns:xlink="http://www.w3.org/1999/xlink" xml:space="preserve" xmlns:serif="http://www.serif.com/" style="fill-rule:evenodd;clip-rule:evenodd;stroke-linejoin:round;stroke-miterlimit:1.41421;"><g id="Mn_edit_doc"><path d="M38,17.51l0,-13.51l-32,0l0,40l32,0l0,-15.509l2,-2l0,17.509c0,1.105 -0.896,2 -2,2c-6.302,0 -25.699,0 -32,0c-1.105,0 -2,-0.895 -2,-2c0,-7.329 0,-32.671 0,-40c0,-1.105 0.895,-2 2,-2c6.301,0 25.698,0 32,0c1.104,0 2,0.895 2,2l0,13.418l-0.039,-0.039c-0.252,-0.252 -0.584,-0.379 -0.915,-0.379c-0.114,0 -0.228,0.015 -0.338,0.045c0.11,-0.03 0.224,-0.045 0.338,-0.045c0.331,0 0.663,0.127 0.915,0.379l3.66,3.661c0.506,0.505 0.506,1.324 0,1.83l-16.13,16.13l-5.491,0l0,-5.49l16,-16Zm-11.045,20.196l12.091,-12.091l-3.661,-3.661l-12.091,12.092l0,3.66l3.661,0Zm13.006,-13.006l-3.661,-3.661l2.745,-2.745l0.001,0l3.66,3.661l-2.745,2.745Z" style="fill:#41986b;fill-rule:nonzero;"/><path d="M26,26c0,-0.552 -0.448,-1 -1,-1c-3.083,0 -12.418,0 -15.5,0c-0.553,0 -1,0.448 -1,1c0,0.552 0.447,1 1,1c3.082,0 12.417,0 15.5,0c0.552,0 1,-0.448 1,-1c0,0 0,0 0,0Zm10.239,-4.834l2.517,-2.516c0.096,-0.096 0.223,-0.15 0.36,-0.15c0.135,0 0.262,0.054 0.359,0.15l2.876,2.876c0.096,0.096 0.149,0.224 0.149,0.359c0,0.136 -0.053,0.264 -0.149,0.36l-2.516,2.517l-3.596,-3.596Zm-3.239,-2.166c0,-0.552 -0.448,-1 -1,-1c-3.963,0 -18.538,0 -22.5,0c-0.553,0 -1,0.448 -1,1c0,0.552 0.447,1 1,1c3.962,0 18.537,0 22.5,0c0.552,0 1,-0.448 1,-1c0,0 0,0 0,0Zm2.5,-7c0,-0.552 -0.448,-1 -1,-1c-4.246,0 -20.755,0 -25,0c-0.553,0 -1,0.448 -1,1c0,0.552 0.447,1 1,1c4.245,0 20.754,0 25,0c0.552,0 1,-0.448 1,-1c0,0 0,0 0,0Z" style="fill:#ffa500;"/></g></svg>