<?xml version="1.0" encoding="UTF-8" standalone="no"?><!DOCTYPE svg PUBLIC "-//W3C//DTD SVG 1.1//EN" "http://www.w3.org/Graphics/SVG/1.1/DTD/svg11.dtd"><svg width="100%" height="100%" viewBox="0 0 48 48" version="1.1" xmlns="http://www.w3.org/2000/svg" xmlns:xlink="http://www.w3.org/1999/xlink" xml:space="preserve" xmlns:serif="http://www.serif.com/" style="fill-rule:evenodd;clip-rule:evenodd;stroke-linejoin:round;stroke-miterlimit:1.41421;"><g id="Mn_library"><path d="M41.5,35.5l-2,0l0,-23l2,0l0,23Zm-11.5,-2l5,0l0,2l-5,0l0,-2Zm-27.062,-1.73c4.382,0.947 8.947,0.956 13.339,-0.048l0.446,1.949c-4.662,1.066 -9.53,1.065 -14.215,0.052l-0.226,-0.051l0.436,-1.952c0.073,0.017 0.147,0.033 0.22,0.05Zm23.062,-1.27l-6,0l0,-3l6,0l0,3Zm4,-12l5,0l0,2l-5,0l0,-2Zm-26.562,-3.927c4.388,0.949 8.947,0.957 13.339,-0.048l0.446,1.95c-4.654,1.064 -9.501,1.071 -14.215,0.051l-0.226,-0.05l0.436,-1.952c0.073,0.016 0.146,0.033 0.22,0.049Z" style="fill:#ffa500;"/><path d="M46,43.5c0,1.105 -0.895,2 -2,2c-7.329,0 -32.671,0 -40,0c-1.105,0 -2,-0.895 -2,-2c0,-7.206 0,-31.794 0,-39c0,-1.105 0.895,-2 2,-2c3.074,0 8.926,0 12,0c1.105,0 2,0.895 2,2c0,2.652 0,7 0,7l10.25,0c0,0 0,-1.608 0,-3c0,-0.53 0.211,-1.039 0.586,-1.414c0.375,-0.375 0.884,-0.586 1.414,-0.586c1.99,0 4.75,0 4.75,0c0,0 0,-1 0,-2c0,-0.53 0.211,-1.039 0.586,-1.414c0.375,-0.375 0.884,-0.586 1.414,-0.586c1.986,0 5.014,0 7,0c0.53,0 1.039,0.211 1.414,0.586c0.375,0.375 0.586,0.884 0.586,1.414c0,7.206 0,31.794 0,39Zm-15.75,-35l0,35l4.75,0l0,-35l-4.75,0Zm-12.25,5l0,30l10,0l0,-30l-10,0Zm-2,-2l0,-7l-12,0l0,39l12,0l0,-32l0,0Zm21,-7l0,39l7,0l0,-39l-7,0Z" style="fill:#41986b;fill-rule:nonzero;"/></g></svg>